<svg width="1450" height="1400" xmlns="http://www.w3.org/2000/svg">
 <!-- Created with Method Draw - http://github.com/duopixel/Method-Draw/ -->

 <g>
  <title>background</title>
  <rect fill="#cccccc" id="canvas_background" height="1402" width="1452" y="-1" x="-1"/>
  <g display="none" id="canvasGrid">
   <rect fill="url(#gridpattern)" stroke-width="0" y="0" x="0" height="100%" width="100%" id="svg_3"/>
  </g>
 </g>
 <g>
  <title>Layer 1</title>
  <rect id="svg_1" height="25" width="50" y="25" x="0" stroke-width="1.5" stroke="#000000" fill="#fff"/>
  <rect id="svg_2" height="25" width="50" y="25" x="50" stroke-width="1.5" stroke="#000000" fill="#fff"/>
  <rect id="svg_3" height="25" width="50" y="50" x="0" stroke-width="1.5" stroke="#000000" fill="#fff"/>
  <rect id="svg_4" height="25" width="50" y="50" x="50" stroke-width="1.5" stroke="#000000" fill="#fff"/>
  <rect id="svg_5" height="25" width="50" y="100" x="0" stroke-width="1.5" stroke="#000000" fill="#fff"/>
  <rect id="svg_6" height="25" width="50" y="100" x="50" stroke-width="1.5" stroke="#000000" fill="#fff"/>
  <rect id="svg_7" height="25" width="50" y="125" x="0" stroke-width="1.5" stroke="#000000" fill="#fff"/>
  <rect id="svg_8" height="25" width="50" y="125" x="50" stroke-width="1.5" stroke="#000000" fill="#fff"/>
  <rect id="svg_9" height="25" width="50" y="200" x="50" stroke-width="1.5" stroke="#000000" fill="#fff"/>
  <rect id="svg_10" height="25" width="50" y="175" x="50" stroke-width="1.5" stroke="#000000" fill="#fff"/>
  <rect id="svg_11" height="25" width="50" y="175" x="0" stroke-width="1.5" stroke="#000000" fill="#fff"/>
  <rect id="svg_12" height="25" width="50" y="200" x="0" stroke-width="1.5" stroke="#000000" fill="#fff"/>
  <rect id="svg_13" height="25" width="50" y="25" x="150" stroke-width="1.5" stroke="#000000" fill="#fff"/>
  <rect id="svg_14" height="25" width="50" y="25" x="200" stroke-width="1.5" stroke="#000000" fill="#fff"/>
  <rect id="svg_15" height="25" width="50" y="50" x="150" stroke-width="1.5" stroke="#000000" fill="#fff"/>
  <rect id="svg_16" height="25" width="50" y="50" x="200" stroke-width="1.5" stroke="#000000" fill="#fff"/>
  <rect id="svg_17" height="25" width="50" y="75" x="150" stroke-width="1.5" stroke="#000000" fill="#fff"/>
  <rect id="svg_18" height="25" width="50" y="75" x="200" stroke-width="1.5" stroke="#000000" fill="#fff"/>
  <rect id="svg_19" height="25" width="50" y="100" x="150" stroke-width="1.5" stroke="#000000" fill="#fff"/>
  <rect id="svg_20" height="25" width="50" y="100" x="200" stroke-width="1.5" stroke="#000000" fill="#fff"/>
  <rect id="svg_21" height="25" width="100" y="250" x="0" fill-opacity="null" stroke-opacity="null" stroke-width="1.5" stroke="#000000" fill="#fff"/>
  <rect id="svg_22" height="25" width="50" y="175" x="150" stroke-width="1.5" stroke="#000000" fill="#fff"/>
  <rect id="svg_23" height="25" width="50" y="175" x="200" stroke-width="1.5" stroke="#000000" fill="#fff"/>
  <rect id="svg_24" height="25" width="50" y="200" x="150" stroke-width="1.5" stroke="#000000" fill="#fff"/>
  <rect id="svg_25" height="25" width="50" y="200" x="200" stroke-width="1.5" stroke="#000000" fill="#fff"/>
  <rect id="svg_26" height="25" width="50" y="225" x="150" stroke-width="1.5" stroke="#000000" fill="#fff"/>
  <rect id="svg_27" height="25" width="50" y="225" x="200" stroke-width="1.5" stroke="#000000" fill="#fff"/>
  <rect id="svg_28" height="25" width="50" y="250" x="150" stroke-width="1.5" stroke="#000000" fill="#fff"/>
  <rect id="svg_29" height="25" width="50" y="250" x="200" stroke-width="1.5" stroke="#000000" fill="#fff"/>
  <rect id="svg_30" height="25" width="50" y="25" x="300" stroke-width="1.5" stroke="#000000" fill="#fff"/>
  <rect id="svg_31" height="25" width="50" y="25" x="350" stroke-width="1.5" stroke="#000000" fill="#fff"/>
  <rect id="svg_32" height="25" width="50" y="50" x="300" stroke-width="1.5" stroke="#000000" fill="#fff"/>
  <rect id="svg_33" height="25" width="50" y="50" x="350" stroke-width="1.5" stroke="#000000" fill="#fff"/>
  <rect id="svg_34" height="25" width="50" y="75" x="300" stroke-width="1.5" stroke="#000000" fill="#fff"/>
  <rect id="svg_35" height="25" width="50" y="75" x="350" stroke-width="1.5" stroke="#000000" fill="#fff"/>
  <rect id="svg_36" height="25" width="50" y="100" x="300" stroke-width="1.5" stroke="#000000" fill="#fff"/>
  <rect id="svg_37" height="25" width="50" y="100" x="350" stroke-width="1.5" stroke="#000000" fill="#fff"/>
  <rect id="svg_38" height="25" width="50" y="175" x="300" stroke-width="1.5" stroke="#000000" fill="#fff"/>
  <rect id="svg_39" height="25" width="50" y="175" x="350" stroke-width="1.5" stroke="#000000" fill="#fff"/>
  <rect id="svg_40" height="25" width="50" y="200" x="300" stroke-width="1.5" stroke="#000000" fill="#fff"/>
  <rect id="svg_41" height="25" width="50" y="200" x="350" stroke-width="1.5" stroke="#000000" fill="#fff"/>
  <rect id="svg_42" height="25" width="50" y="225" x="300" stroke-width="1.5" stroke="#000000" fill="#fff"/>
  <rect id="svg_43" height="25" width="50" y="225" x="350" stroke-width="1.5" stroke="#000000" fill="#fff"/>
  <rect id="svg_44" height="25" width="50" y="250" x="300" stroke-width="1.5" stroke="#000000" fill="#fff"/>
  <rect id="svg_45" height="25" width="50" y="250" x="350" stroke-width="1.5" stroke="#000000" fill="#fff"/>
  <rect id="svg_46" height="25" width="50" y="250" x="400" stroke-width="1.5" stroke="#000000" fill="#fff"/>
  <rect id="svg_47" height="25" width="50" y="250" x="450" stroke-width="1.5" stroke="#000000" fill="#fff"/>
  <rect id="svg_48" height="25" width="50" y="175" x="450" stroke-width="1.5" stroke="#000000" fill="#fff"/>
  <rect id="svg_49" height="25" width="50" y="200" x="450" stroke-width="1.5" stroke="#000000" fill="#fff"/>
  <rect rx="20" id="svg_50" height="100" width="150" y="25" x="400" fill-opacity="null" stroke-opacity="null" stroke-width="1.5" stroke="#000000" fill="#fff"/>
  <rect id="svg_51" height="4" width="0" y="537" x="457.5" fill-opacity="null" stroke-opacity="null" stroke-width="1.5" stroke="#000000" fill="#fff"/>
  <rect id="svg_52" height="25" width="50" y="25" x="550" stroke-width="1.5" stroke="#000000" fill="#fff"/>
  <rect id="svg_53" height="25" width="50" y="50" x="550" stroke-width="1.5" stroke="#000000" fill="#fff"/>
  <rect id="svg_54" height="25" width="50" y="75" x="550" stroke-width="1.5" stroke="#000000" fill="#fff"/>
  <rect id="svg_55" height="25" width="50" y="100" x="550" stroke-width="1.5" stroke="#000000" fill="#fff"/>
  <rect id="svg_56" height="25" width="50" y="0" x="550" stroke-width="1.5" stroke="#000000" fill="#fff"/>
  <rect id="svg_57" height="25" width="50" y="25" x="650" stroke-width="1.5" stroke="#000000" fill="#fff"/>
  <rect id="svg_58" height="25" width="50" y="50" x="650" stroke-width="1.5" stroke="#000000" fill="#fff"/>
  <rect id="svg_59" height="25" width="50" y="75" x="650" stroke-width="1.5" stroke="#000000" fill="#fff"/>
  <rect id="svg_60" height="25" width="50" y="100" x="650" stroke-width="1.5" stroke="#000000" fill="#fff"/>
  <rect id="svg_61" height="25" width="50" y="25" x="700" stroke-width="1.5" stroke="#000000" fill="#fff"/>
  <rect id="svg_62" height="25" width="50" y="50" x="700" stroke-width="1.5" stroke="#000000" fill="#fff"/>
  <rect id="svg_63" height="25" width="50" y="75" x="700" stroke-width="1.5" stroke="#000000" fill="#fff"/>
  <rect id="svg_64" height="25" width="50" y="100" x="700" stroke-width="1.5" stroke="#000000" fill="#fff"/>
  <rect id="svg_65" height="25" width="50" y="25" x="800" stroke-width="1.5" stroke="#000000" fill="#fff"/>
  <rect id="svg_66" height="25" width="50" y="50" x="800" stroke-width="1.5" stroke="#000000" fill="#fff"/>
  <rect id="svg_67" height="25" width="50" y="75" x="800" stroke-width="1.5" stroke="#000000" fill="#fff"/>
  <rect id="svg_68" height="25" width="50" y="100" x="800" stroke-width="1.5" stroke="#000000" fill="#fff"/>
  <rect id="svg_69" height="25" width="50" y="0" x="800" stroke-width="1.5" stroke="#000000" fill="#fff"/>
  <rect id="svg_70" height="25" width="50" y="0" x="750" stroke-width="1.5" stroke="#000000" fill="#fff"/>
  <rect id="svg_71" height="25" width="50" y="0" x="850" stroke-width="1.5" stroke="#000000" fill="#fff"/>
  <rect id="svg_72" height="25" width="50" y="25" x="900" stroke-width="1.5" stroke="#000000" fill="#fff"/>
  <rect id="svg_73" height="25" width="50" y="50" x="900" stroke-width="1.5" stroke="#000000" fill="#fff"/>
  <rect id="svg_74" height="25" width="50" y="75" x="900" stroke-width="1.5" stroke="#000000" fill="#fff"/>
  <rect id="svg_75" height="25" width="50" y="0" x="900" stroke-width="1.5" stroke="#000000" fill="#fff"/>
  <rect id="svg_76" height="25" width="50" y="25" x="950" stroke-width="1.5" stroke="#000000" fill="#fff"/>
  <rect id="svg_77" height="25" width="50" y="50" x="950" stroke-width="1.5" stroke="#000000" fill="#fff"/>
  <rect id="svg_78" height="25" width="50" y="75" x="950" stroke-width="1.5" stroke="#000000" fill="#fff"/>
  <rect id="svg_79" height="25" width="50" y="0" x="950" stroke-width="1.5" stroke="#000000" fill="#fff"/>
  <rect id="svg_80" height="25" width="50" y="25" x="1050" stroke-width="1.5" stroke="#000000" fill="#fff"/>
  <rect id="svg_81" height="25" width="50" y="50" x="1050" stroke-width="1.5" stroke="#000000" fill="#fff"/>
  <rect id="svg_82" height="25" width="50" y="75" x="1050" stroke-width="1.5" stroke="#000000" fill="#fff"/>
  <rect id="svg_83" height="25" width="50" y="0" x="1050" stroke-width="1.5" stroke="#000000" fill="#fff"/>
  <rect id="svg_84" height="25" width="50" y="25" x="1100" stroke-width="1.5" stroke="#000000" fill="#fff"/>
  <rect id="svg_85" height="25" width="50" y="50" x="1100" stroke-width="1.5" stroke="#000000" fill="#fff"/>
  <rect id="svg_86" height="25" width="50" y="75" x="1100" stroke-width="1.5" stroke="#000000" fill="#fff"/>
  <rect id="svg_87" height="25" width="50" y="0" x="1100" stroke-width="1.5" stroke="#000000" fill="#fff"/>
  <rect id="svg_88" height="25" width="50" y="0" x="1150" stroke-width="1.5" stroke="#000000" fill="#fff"/>
  <rect id="svg_89" height="25" width="50" y="25" x="1250" stroke-width="1.5" stroke="#000000" fill="#fff"/>
  <rect id="svg_90" height="25" width="50" y="50" x="1250" stroke-width="1.5" stroke="#000000" fill="#fff"/>
  <rect id="svg_91" height="25" width="50" y="75" x="1250" stroke-width="1.5" stroke="#000000" fill="#fff"/>
  <rect id="svg_92" height="25" width="50" y="100" x="1250" stroke-width="1.5" stroke="#000000" fill="#fff"/>
  <rect id="svg_93" height="25" width="50" y="0" x="1250" stroke-width="1.5" stroke="#000000" fill="#fff"/>
  <rect id="svg_94" height="25" width="50" y="25" x="1300" stroke-width="1.5" stroke="#000000" fill="#fff"/>
  <rect id="svg_95" height="25" width="50" y="50" x="1300" stroke-width="1.5" stroke="#000000" fill="#fff"/>
  <rect id="svg_96" height="25" width="50" y="75" x="1300" stroke-width="1.5" stroke="#000000" fill="#fff"/>
  <rect id="svg_97" height="25" width="50" y="100" x="1300" stroke-width="1.5" stroke="#000000" fill="#fff"/>
  <rect id="svg_98" height="25" width="50" y="0" x="1300" stroke-width="1.5" stroke="#000000" fill="#fff"/>
  <rect id="svg_99" height="25" width="50" y="25" x="1350" stroke-width="1.5" stroke="#000000" fill="#fff"/>
  <rect id="svg_100" height="25" width="50" y="50" x="1350" stroke-width="1.5" stroke="#000000" fill="#fff"/>
  <rect id="svg_101" height="25" width="50" y="75" x="1350" stroke-width="1.5" stroke="#000000" fill="#fff"/>
  <rect id="svg_102" height="25" width="50" y="100" x="1350" stroke-width="1.5" stroke="#000000" fill="#fff"/>
  <rect id="svg_103" height="25" width="50" y="0" x="1350" stroke-width="1.5" stroke="#000000" fill="#fff"/>
  <rect id="svg_104" height="25" width="50" y="25" x="1400" stroke-width="1.5" stroke="#000000" fill="#fff"/>
  <rect id="svg_105" height="25" width="50" y="50" x="1400" stroke-width="1.5" stroke="#000000" fill="#fff"/>
  <rect id="svg_106" height="25" width="50" y="75" x="1400" stroke-width="1.5" stroke="#000000" fill="#fff"/>
  <rect id="svg_107" height="25" width="50" y="100" x="1400" stroke-width="1.5" stroke="#000000" fill="#fff"/>
  <rect id="svg_108" height="25" width="50" y="0" x="1400" stroke-width="1.5" stroke="#000000" fill="#fff"/>
  <rect id="svg_109" height="25" width="50" y="150" x="1250" stroke-width="1.5" stroke="#000000" fill="#fff"/>
  <rect id="svg_110" height="25" width="50" y="150" x="1300" stroke-width="1.5" stroke="#000000" fill="#fff"/>
  <rect id="svg_111" height="25" width="50" y="150" x="1350" stroke-width="1.5" stroke="#000000" fill="#fff"/>
  <rect id="svg_112" height="25" width="50" y="150" x="1400" stroke-width="1.5" stroke="#000000" fill="#fff"/>
  <rect id="svg_113" height="25" width="50" y="175" x="1100" stroke-width="1.5" stroke="#000000" fill="#fff"/>
  <rect id="svg_114" height="25" width="50" y="200" x="1100" stroke-width="1.5" stroke="#000000" fill="#fff"/>
  <rect id="svg_115" height="25" width="50" y="225" x="1100" stroke-width="1.5" stroke="#000000" fill="#fff"/>
  <rect id="svg_116" height="25" width="50" y="150" x="1100" stroke-width="1.5" stroke="#000000" fill="#fff"/>
  <rect id="svg_117" height="25" width="50" y="175" x="950" stroke-width="1.5" stroke="#000000" fill="#fff"/>
  <rect id="svg_118" height="25" width="50" y="200" x="950" stroke-width="1.5" stroke="#000000" fill="#fff"/>
  <rect id="svg_119" height="25" width="50" y="225" x="950" stroke-width="1.5" stroke="#000000" fill="#fff"/>
  <rect id="svg_120" height="25" width="50" y="150" x="950" stroke-width="1.5" stroke="#000000" fill="#fff"/>
  <rect id="svg_121" height="25" width="50" y="175" x="1050" stroke-width="1.5" stroke="#000000" fill="#fff"/>
  <rect id="svg_122" height="25" width="50" y="150" x="1050" stroke-width="1.5" stroke="#000000" fill="#fff"/>
  <rect fill="#fff" stroke="#000" stroke-width="1.5" x="0" y="275" width="200" height="75" id="svg_123" rx="20"/>
  <rect fill="#fff" stroke="#000" stroke-width="1.5" x="-1" y="350" width="200" height="150" id="svg_124"/>
  <rect fill="#fff" stroke="#000" stroke-width="1.5" x="200" y="275" width="300" height="225" id="svg_125"/>
  <rect id="svg_126" height="25" width="50" y="250" x="1250" stroke-width="1.5" stroke="#000000" fill="#fff"/>
  <rect id="svg_127" height="25" width="50" y="275" x="1250" stroke-width="1.5" stroke="#000000" fill="#fff"/>
  <rect id="svg_128" height="25" width="50" y="300" x="1250" stroke-width="1.5" stroke="#000000" fill="#fff"/>
  <rect id="svg_129" height="25" width="50" y="325" x="1250" stroke-width="1.5" stroke="#000000" fill="#fff"/>
  <rect id="svg_130" height="25" width="50" y="225" x="1250" stroke-width="1.5" stroke="#000000" fill="#fff"/>
  <rect id="svg_131" height="25" width="50" y="350" x="1250" stroke-width="1.5" stroke="#000000" fill="#fff"/>
  <rect id="svg_132" height="25" width="50" y="275" x="1200" stroke-width="1.5" stroke="#000000" fill="#fff"/>
  <rect id="svg_133" height="25" width="50" y="300" x="1200" stroke-width="1.5" stroke="#000000" fill="#fff"/>
  <rect id="svg_134" height="25" width="50" y="599.738865" x="1400" stroke-width="1.5" stroke="#000000" fill="#fff"/>
  <rect id="svg_135" height="25" width="50" y="624.738865" x="1400" stroke-width="1.5" stroke="#000000" fill="#fff"/>
  <rect fill="#fff" stroke="#000000" stroke-width="1.5" stroke-opacity="null" fill-opacity="null" x="1350" y="225" width="100" height="50" id="svg_136"/>
  <rect fill="#fff" stroke="#000000" stroke-width="1.5" stroke-opacity="null" fill-opacity="null" x="1350" y="275" width="100" height="50" id="svg_137"/>
  <rect fill="#fff" stroke="#000000" stroke-width="1.5" stroke-opacity="null" fill-opacity="null" x="1350" y="325" width="100" height="50" id="svg_138"/>
  <rect fill="#fff" stroke="#000000" stroke-width="1.5" stroke-opacity="null" fill-opacity="null" x="1350" y="375" width="100" height="50" id="svg_139"/>
  <rect fill="#fff" stroke="#000000" stroke-width="1.5" stroke-opacity="null" fill-opacity="null" x="1350" y="425" width="100" height="50" id="svg_140"/>
  <rect fill="#fff" stroke="#000" stroke-width="1.5" x="950" y="275" width="100" height="75" id="svg_141" rx="20"/>
  <rect fill="#fff" stroke="#000000" stroke-width="1.5" stroke-opacity="null" fill-opacity="null" x="1100" y="425" width="200" height="50" id="svg_142" rx="20"/>
  <rect fill="#fff" stroke="#000000" stroke-width="1.5" stroke-opacity="null" fill-opacity="null" x="950" y="350" width="150" height="125" id="svg_143" rx="20"/>
  <rect fill="#fff" stroke="#000000" stroke-width="1.5" stroke-opacity="null" fill-opacity="null" x="550" y="175" width="350" height="175" id="svg_144"/>
  <rect fill="#fff" stroke="#000000" stroke-width="1.5" stroke-opacity="null" fill-opacity="null" x="550" y="350" width="350" height="125" id="svg_145"/>
  <rect fill="#fff" stroke="#000000" stroke-width="1.5" stroke-opacity="null" fill-opacity="null" x="550" y="475" width="350" height="250" id="svg_146"/>
  <rect fill="#fff" stroke="#000000" stroke-width="1.5" stroke-opacity="null" fill-opacity="null" x="550" y="725" width="350" height="150" id="svg_147"/>
  <rect fill="#fff" stroke="#000000" stroke-width="1.5" stroke-opacity="null" fill-opacity="null" x="0" y="500" width="300" height="200" id="svg_148" rx="20"/>
  <rect fill="#fff" stroke="#000000" stroke-width="1.5" stroke-opacity="null" fill-opacity="null" x="0" y="700" width="300" height="75" id="svg_149" rx="20"/>
  <rect fill="#fff" stroke="#000000" stroke-width="1.5" stroke-opacity="null" fill-opacity="null" x="299.5" y="500" width="200" height="100" id="svg_150"/>
  <rect fill="#fff" stroke="#000000" stroke-width="1.5" stroke-opacity="null" fill-opacity="null" x="299.5" y="600" width="100" height="75" id="svg_151"/>
  <rect fill="#fff" stroke="#000000" stroke-width="1.5" stroke-opacity="null" fill-opacity="null" x="400" y="600" width="100" height="75" id="svg_152" rx="20"/>
  <rect fill="#fff" stroke="#000000" stroke-width="1.5" stroke-opacity="null" fill-opacity="null" x="300" y="675" width="200" height="75" id="svg_153" rx="20"/>
  <rect fill="#fff" stroke="#000000" stroke-width="1.5" stroke-opacity="null" fill-opacity="null" x="0" y="775" width="500" height="125" id="svg_154"/>
  <rect fill="#fff" stroke="#000000" stroke-width="1.5" stroke-opacity="null" fill-opacity="null" x="950" y="474.740353" width="300" height="125" id="svg_155"/>
  <rect fill="#fff" stroke="#000000" stroke-width="1.5" stroke-opacity="null" fill-opacity="null" x="1249.74072" y="475" width="200.001477" height="75" id="svg_156" rx="20"/>
  <rect fill="#fff" stroke="#000000" stroke-width="1.5" stroke-opacity="null" fill-opacity="null" x="1250" y="550" width="200.001477" height="50" id="svg_157"/>
  <rect fill="#fff" stroke="#000000" stroke-width="1.5" stroke-opacity="null" fill-opacity="null" x="950" y="600" width="100" height="50" id="svg_158" rx="20"/>
  <rect fill="#fff" stroke="#000000" stroke-width="1.5" stroke-opacity="null" fill-opacity="null" x="950" y="650" width="100" height="50" id="svg_159" rx="20"/>
  <rect fill="#fff" stroke="#000000" stroke-width="1.5" stroke-opacity="null" fill-opacity="null" x="950" y="700" width="100" height="50" id="svg_160" rx="20"/>
  <rect fill="#fff" stroke="#000000" stroke-width="1.5" stroke-opacity="null" fill-opacity="null" x="950" y="750" width="100" height="150" id="svg_161" rx="20"/>
  <rect id="svg_162" height="25" width="100" y="600" x="1100" fill-opacity="null" stroke-opacity="null" stroke-width="1.5" stroke="#000000" fill="#fff"/>
  <rect id="svg_163" height="25" width="100" y="600" x="1200" fill-opacity="null" stroke-opacity="null" stroke-width="1.5" stroke="#000000" fill="#fff"/>
  <rect id="svg_164" height="25" width="100" y="600" x="1300" fill-opacity="null" stroke-opacity="null" stroke-width="1.5" stroke="#000000" fill="#fff"/>
  <rect id="svg_165" height="25" width="100" y="650" x="1100" fill-opacity="null" stroke-opacity="null" stroke-width="1.5" stroke="#000000" fill="#fff"/>
  <rect id="svg_166" height="25" width="100" y="650" x="1200" fill-opacity="null" stroke-opacity="null" stroke-width="1.5" stroke="#000000" fill="#fff"/>
  <rect id="svg_167" height="25" width="100" y="650" x="1300" fill-opacity="null" stroke-opacity="null" stroke-width="1.5" stroke="#000000" fill="#fff"/>
  <rect id="svg_168" height="25" width="100" y="675.263345" x="1100" fill-opacity="null" stroke-opacity="null" stroke-width="1.5" stroke="#000000" fill="#fff"/>
  <rect id="svg_169" height="25" width="100" y="675.263345" x="1200" fill-opacity="null" stroke-opacity="null" stroke-width="1.5" stroke="#000000" fill="#fff"/>
  <rect id="svg_170" height="25" width="100" y="675.263345" x="1300" fill-opacity="null" stroke-opacity="null" stroke-width="1.5" stroke="#000000" fill="#fff"/>
  <rect id="svg_171" height="25" width="100" y="724.737395" x="1100" fill-opacity="null" stroke-opacity="null" stroke-width="1.5" stroke="#000000" fill="#fff"/>
  <rect id="svg_172" height="25" width="100" y="724.737395" x="1200" fill-opacity="null" stroke-opacity="null" stroke-width="1.5" stroke="#000000" fill="#fff"/>
  <rect id="svg_173" height="25" width="100" y="724.737395" x="1300" fill-opacity="null" stroke-opacity="null" stroke-width="1.5" stroke="#000000" fill="#fff"/>
  <rect id="svg_174" height="25" width="100" y="750.00074" x="1100" fill-opacity="null" stroke-opacity="null" stroke-width="1.5" stroke="#000000" fill="#fff"/>
  <rect id="svg_175" height="25" width="100" y="750.00074" x="1200" fill-opacity="null" stroke-opacity="null" stroke-width="1.5" stroke="#000000" fill="#fff"/>
  <rect id="svg_176" height="25" width="100" y="750.00074" x="1300" fill-opacity="null" stroke-opacity="null" stroke-width="1.5" stroke="#000000" fill="#fff"/>
  <rect id="svg_177" height="25" width="100" y="800" x="1100" fill-opacity="null" stroke-opacity="null" stroke-width="1.5" stroke="#000000" fill="#fff"/>
  <rect id="svg_178" height="25" width="100" y="800" x="1200" fill-opacity="null" stroke-opacity="null" stroke-width="1.5" stroke="#000000" fill="#fff"/>
  <rect id="svg_179" height="25" width="100" y="800" x="1300" fill-opacity="null" stroke-opacity="null" stroke-width="1.5" stroke="#000000" fill="#fff"/>
  <rect id="svg_180" height="25" width="100" y="824.738135" x="1100" fill-opacity="null" stroke-opacity="null" stroke-width="1.5" stroke="#000000" fill="#fff"/>
  <rect id="svg_181" height="25" width="100" y="824.738135" x="1200" fill-opacity="null" stroke-opacity="null" stroke-width="1.5" stroke="#000000" fill="#fff"/>
  <rect id="svg_182" height="25" width="100" y="824.738135" x="1300" fill-opacity="null" stroke-opacity="null" stroke-width="1.5" stroke="#000000" fill="#fff"/>
  <rect id="svg_183" height="25" width="100" y="875" x="1100" fill-opacity="null" stroke-opacity="null" stroke-width="1.5" stroke="#000000" fill="#fff"/>
  <rect id="svg_184" height="25" width="100" y="875" x="1200" fill-opacity="null" stroke-opacity="null" stroke-width="1.5" stroke="#000000" fill="#fff"/>
  <rect id="svg_185" height="25" width="100" y="875" x="1300" fill-opacity="null" stroke-opacity="null" stroke-width="1.5" stroke="#000000" fill="#fff"/>
  <rect id="svg_186" height="25" width="50" y="650.265552" x="1400" stroke-width="1.5" stroke="#000000" fill="#fff"/>
  <rect id="svg_187" height="25" width="50" y="675.265552" x="1400" stroke-width="1.5" stroke="#000000" fill="#fff"/>
  <rect id="svg_188" height="25" width="50" y="699.739604" x="1400" stroke-width="1.5" stroke="#000000" fill="#fff"/>
  <rect id="svg_189" height="25" width="50" y="724.739604" x="1400" stroke-width="1.5" stroke="#000000" fill="#fff"/>
  <rect id="svg_190" height="25" width="50" y="750.266294" x="1400" stroke-width="1.5" stroke="#000000" fill="#fff"/>
  <rect id="svg_191" height="25" width="50" y="775.266294" x="1400" stroke-width="1.5" stroke="#000000" fill="#fff"/>
  <rect id="svg_192" height="25" width="50" y="800.792981" x="1400" stroke-width="1.5" stroke="#000000" fill="#fff"/>
  <rect id="svg_193" height="25" width="50" y="825.792981" x="1400" stroke-width="1.5" stroke="#000000" fill="#fff"/>
  <rect id="svg_194" height="25" width="50" y="850.267033" x="1400" stroke-width="1.5" stroke="#000000" fill="#fff"/>
  <rect id="svg_195" height="25" width="50" y="875.267033" x="1400" stroke-width="1.5" stroke="#000000" fill="#fff"/>
  <rect id="svg_196" height="25" width="50" y="925" x="0" stroke-width="1.5" stroke="#000000" fill="#fff"/>
  <rect id="svg_197" height="25" width="50" y="925" x="50" stroke-width="1.5" stroke="#000000" fill="#fff"/>
  <rect id="svg_198" height="25" width="50" y="950" x="0" stroke-width="1.5" stroke="#000000" fill="#fff"/>
  <rect id="svg_199" height="25" width="50" y="950" x="50" stroke-width="1.5" stroke="#000000" fill="#fff"/>
  <rect id="svg_200" height="25" width="50" y="975" x="0" stroke-width="1.5" stroke="#000000" fill="#fff"/>
  <rect id="svg_201" height="25" width="50" y="975" x="50" stroke-width="1.5" stroke="#000000" fill="#fff"/>
  <rect id="svg_202" height="25" width="50" y="1000" x="0" stroke-width="1.5" stroke="#000000" fill="#fff"/>
  <rect id="svg_203" height="25" width="50" y="1000" x="50" stroke-width="1.5" stroke="#000000" fill="#fff"/>
  <rect id="svg_204" height="25" width="50" y="925" x="200.001479" stroke-width="1.5" stroke="#000000" fill="#fff"/>
  <rect id="svg_205" height="25" width="50" y="925" x="250.001479" stroke-width="1.5" stroke="#000000" fill="#fff"/>
  <rect id="svg_206" height="25" width="50" y="950" x="200.001479" stroke-width="1.5" stroke="#000000" fill="#fff"/>
  <rect id="svg_207" height="25" width="50" y="950" x="250.001479" stroke-width="1.5" stroke="#000000" fill="#fff"/>
  <rect id="svg_208" height="25" width="50" y="975" x="200.001479" stroke-width="1.5" stroke="#000000" fill="#fff"/>
  <rect id="svg_209" height="25" width="50" y="975" x="250.001479" stroke-width="1.5" stroke="#000000" fill="#fff"/>
  <rect id="svg_210" height="25" width="50" y="1000" x="200.001479" stroke-width="1.5" stroke="#000000" fill="#fff"/>
  <rect id="svg_211" height="25" width="50" y="1000" x="250.001479" stroke-width="1.5" stroke="#000000" fill="#fff"/>
  <rect id="svg_212" height="25" width="50" y="925" x="350" stroke-width="1.5" stroke="#000000" fill="#fff"/>
  <rect id="svg_213" height="25" width="50" y="925" x="400" stroke-width="1.5" stroke="#000000" fill="#fff"/>
  <rect id="svg_214" height="25" width="50" y="950" x="350" stroke-width="1.5" stroke="#000000" fill="#fff"/>
  <rect id="svg_215" height="25" width="50" y="950" x="400" stroke-width="1.5" stroke="#000000" fill="#fff"/>
  <rect id="svg_216" height="25" width="50" y="975" x="350" stroke-width="1.5" stroke="#000000" fill="#fff"/>
  <rect id="svg_217" height="25" width="50" y="975" x="400" stroke-width="1.5" stroke="#000000" fill="#fff"/>
  <rect id="svg_218" height="25" width="50" y="1000" x="350" stroke-width="1.5" stroke="#000000" fill="#fff"/>
  <rect id="svg_219" height="25" width="50" y="1000" x="400" stroke-width="1.5" stroke="#000000" fill="#fff"/>
  <rect id="svg_220" height="25" width="50" y="1025.00074" x="50" stroke-width="1.5" stroke="#000000" fill="#fff"/>
  <rect id="svg_221" height="25" width="50" y="1050.00074" x="50" stroke-width="1.5" stroke="#000000" fill="#fff"/>
  <rect id="svg_222" height="25" width="50" y="1075.00074" x="0" stroke-width="1.5" stroke="#000000" fill="#fff"/>
  <rect id="svg_223" height="25" width="50" y="1075.00074" x="50" stroke-width="1.5" stroke="#000000" fill="#fff"/>
  <rect id="svg_224" height="25" width="50" y="1100.00074" x="0" stroke-width="1.5" stroke="#000000" fill="#fff"/>
  <rect id="svg_225" height="25" width="50" y="1100.00074" x="50" stroke-width="1.5" stroke="#000000" fill="#fff"/>
  <rect fill="#fff" stroke="#000000" stroke-width="1.5" stroke-opacity="null" fill-opacity="null" x="0.257791" y="1025.270751" width="50" height="50" id="svg_226"/>
  <rect id="svg_227" height="25" width="50" y="1025.00074" x="200.001479" stroke-width="1.5" stroke="#000000" fill="#fff"/>
  <rect id="svg_228" height="25" width="50" y="1025.00074" x="250.001479" stroke-width="1.5" stroke="#000000" fill="#fff"/>
  <rect id="svg_229" height="25" width="50" y="1050.00074" x="200.001479" stroke-width="1.5" stroke="#000000" fill="#fff"/>
  <rect id="svg_230" height="25" width="50" y="1050.00074" x="250.001479" stroke-width="1.5" stroke="#000000" fill="#fff"/>
  <rect id="svg_231" height="25" width="50" y="1075.00074" x="200.001479" stroke-width="1.5" stroke="#000000" fill="#fff"/>
  <rect id="svg_232" height="25" width="50" y="1075.00074" x="250.001479" stroke-width="1.5" stroke="#000000" fill="#fff"/>
  <rect id="svg_233" height="25" width="50" y="1100.00074" x="200.001479" stroke-width="1.5" stroke="#000000" fill="#fff"/>
  <rect id="svg_234" height="25" width="50" y="1100.00074" x="250.001479" stroke-width="1.5" stroke="#000000" fill="#fff"/>
  <rect id="svg_235" height="25" width="50" y="1025.00074" x="350" stroke-width="1.5" stroke="#000000" fill="#fff"/>
  <rect id="svg_236" height="25" width="50" y="1050.00074" x="350" stroke-width="1.5" stroke="#000000" fill="#fff"/>
  <rect id="svg_237" height="25" width="50" y="1075.00074" x="350" stroke-width="1.5" stroke="#000000" fill="#fff"/>
  <rect id="svg_238" height="25" width="50" y="1100.00074" x="350" stroke-width="1.5" stroke="#000000" fill="#fff"/>
  <rect id="svg_239" height="25" width="50" y="1075.00074" x="450" stroke-width="1.5" stroke="#000000" fill="#fff"/>
  <rect fill="#fff" stroke="#000000" stroke-width="1.5" stroke-opacity="null" fill-opacity="null" x="449.734807" y="1025.270751" width="50" height="50" id="svg_240"/>
  <rect fill="#fff" stroke="#000000" stroke-width="1.5" stroke-opacity="null" fill-opacity="null" x="0" y="1150" width="100" height="150" id="svg_241" rx="20"/>
  <rect fill="#fff" stroke="#000000" stroke-width="1.5" stroke-opacity="null" fill-opacity="null" x="0" y="1300" width="100" height="100" id="svg_242" rx="20"/>
  <rect fill="#fff" stroke="#000000" stroke-width="1.5" stroke-opacity="null" fill-opacity="null" x="100" y="1300" width="200" height="100" id="svg_243" rx="20"/>
  <rect fill="#fff" stroke="#000000" stroke-width="1.5" stroke-opacity="null" fill-opacity="null" x="300" y="1300" width="100" height="100" id="svg_244" rx="20"/>
  <rect id="svg_245" height="25" width="50" y="1150.264827" x="200.001479" stroke-width="1.5" stroke="#000000" fill="#fff"/>
  <rect id="svg_246" height="25" width="50" y="1150.264827" x="250.001479" stroke-width="1.5" stroke="#000000" fill="#fff"/>
  <rect id="svg_247" height="25" width="50" y="1175.264827" x="200.001479" stroke-width="1.5" stroke="#000000" fill="#fff"/>
  <rect id="svg_248" height="25" width="50" y="1175.264827" x="250.001479" stroke-width="1.5" stroke="#000000" fill="#fff"/>
  <rect id="svg_249" height="25" width="50" y="1200.264827" x="200.001479" stroke-width="1.5" stroke="#000000" fill="#fff"/>
  <rect id="svg_250" height="25" width="50" y="1200.264827" x="250.001479" stroke-width="1.5" stroke="#000000" fill="#fff"/>
  <rect id="svg_251" height="25" width="50" y="1225.264827" x="200.001479" stroke-width="1.5" stroke="#000000" fill="#fff"/>
  <rect id="svg_252" height="25" width="50" y="1225.264827" x="250.001479" stroke-width="1.5" stroke="#000000" fill="#fff"/>
  <rect id="svg_253" height="25" width="50" y="1150.264827" x="350" stroke-width="1.5" stroke="#000000" fill="#fff"/>
  <rect id="svg_254" height="25" width="50" y="1175.264827" x="350" stroke-width="1.5" stroke="#000000" fill="#fff"/>
  <rect id="svg_255" height="25" width="50" y="1200.264827" x="350" stroke-width="1.5" stroke="#000000" fill="#fff"/>
  <rect id="svg_256" height="25" width="50" y="1225.264827" x="350" stroke-width="1.5" stroke="#000000" fill="#fff"/>
  <rect fill="#fff" stroke="#000000" stroke-width="1.5" stroke-opacity="null" fill-opacity="null" x="550" y="900" width="250" height="50" id="svg_257" rx="20"/>
  <rect fill="#fff" stroke="#000000" stroke-width="1.5" stroke-opacity="null" fill-opacity="null" x="800" y="900" width="100" height="50" id="svg_258" rx="20"/>
  <rect fill="#fff" stroke="#000000" stroke-width="1.5" stroke-opacity="null" fill-opacity="null" x="800" y="950" width="200" height="125" id="svg_259" rx="20"/>
  <rect fill="#fff" stroke="#000000" stroke-width="1.5" stroke-opacity="null" fill-opacity="null" x="800" y="1075" width="100" height="150" id="svg_260" rx="20"/>
  <rect fill="#fff" stroke="#000000" stroke-width="1.5" stroke-opacity="null" fill-opacity="null" x="900.000742" y="1075" width="100" height="150" id="svg_261" rx="20"/>
  <rect id="svg_262" height="75" width="100" y="950" x="1350" stroke-width="1.5" stroke="#000" fill="#fff"/>
  <rect id="svg_263" height="25" width="50" y="975" x="550" stroke-width="1.5" stroke="#000000" fill="#fff"/>
  <rect id="svg_264" height="25" width="50" y="975" x="599.994822" stroke-width="1.5" stroke="#000000" fill="#fff"/>
  <rect id="svg_265" height="25" width="50" y="975" x="649.994822" stroke-width="1.5" stroke="#000000" fill="#fff"/>
  <rect id="svg_266" height="25" width="50" y="975" x="699.994822" stroke-width="1.5" stroke="#000000" fill="#fff"/>
  <rect id="svg_267" height="25" width="50" y="975" x="750" stroke-width="1.5" stroke="#000000" fill="#fff"/>
  <rect id="svg_268" height="25" width="50" y="1025" x="550" stroke-width="1.5" stroke="#000000" fill="#fff"/>
  <rect id="svg_269" height="25" width="50" y="1025" x="599.994822" stroke-width="1.5" stroke="#000000" fill="#fff"/>
  <rect id="svg_270" height="25" width="50" y="1025" x="649.994822" stroke-width="1.5" stroke="#000000" fill="#fff"/>
  <rect id="svg_271" height="25" width="50" y="1025" x="699.994822" stroke-width="1.5" stroke="#000000" fill="#fff"/>
  <rect id="svg_272" height="25" width="50" y="1025" x="750" stroke-width="1.5" stroke="#000000" fill="#fff"/>
  <rect id="svg_273" height="25" width="50" y="1070.263493" x="550" stroke-width="1.5" stroke="#000000" fill="#fff"/>
  <rect id="svg_274" height="25" width="50" y="1070.263493" x="599.994822" stroke-width="1.5" stroke="#000000" fill="#fff"/>
  <rect id="svg_275" height="25" width="50" y="1070.263493" x="649.994822" stroke-width="1.5" stroke="#000000" fill="#fff"/>
  <rect id="svg_276" height="25" width="50" y="1125.00074" x="550" stroke-width="1.5" stroke="#000000" fill="#fff"/>
  <rect id="svg_277" height="25" width="50" y="1125.00074" x="599.994822" stroke-width="1.5" stroke="#000000" fill="#fff"/>
  <rect id="svg_278" height="25" width="50" y="1125.00074" x="649.994822" stroke-width="1.5" stroke="#000000" fill="#fff"/>
  <rect id="svg_279" height="25" width="50" y="1125.00074" x="699.994822" stroke-width="1.5" stroke="#000000" fill="#fff"/>
  <rect id="svg_280" height="25" width="50" y="1125.00074" x="750" stroke-width="1.5" stroke="#000000" fill="#fff"/>
  <rect id="svg_281" height="25" width="50" y="1150.264084" x="550" stroke-width="1.5" stroke="#000000" fill="#fff"/>
  <rect id="svg_282" height="25" width="50" y="1150.264084" x="599.994822" stroke-width="1.5" stroke="#000000" fill="#fff"/>
  <rect id="svg_283" height="25" width="50" y="1150.264084" x="649.994822" stroke-width="1.5" stroke="#000000" fill="#fff"/>
  <rect id="svg_284" height="25" width="50" y="1150.264084" x="699.994822" stroke-width="1.5" stroke="#000000" fill="#fff"/>
  <rect id="svg_285" height="25" width="50" y="1150.264084" x="750" stroke-width="1.5" stroke="#000000" fill="#fff"/>
  <rect id="svg_286" height="25" width="50" y="1199.738135" x="550" stroke-width="1.5" stroke="#000000" fill="#fff"/>
  <rect id="svg_287" height="25" width="50" y="1199.738135" x="599.994822" stroke-width="1.5" stroke="#000000" fill="#fff"/>
  <rect id="svg_288" height="25" width="50" y="1199.738135" x="649.994822" stroke-width="1.5" stroke="#000000" fill="#fff"/>
  <rect id="svg_289" height="25" width="50" y="1199.738135" x="699.994822" stroke-width="1.5" stroke="#000000" fill="#fff"/>
  <rect id="svg_290" height="25" width="50" y="1199.738135" x="750" stroke-width="1.5" stroke="#000000" fill="#fff"/>
  <rect fill="#fff" stroke="#000000" stroke-width="1.5" stroke-opacity="null" fill-opacity="null" x="550" y="1275" width="100.00074" height="125" id="svg_291"/>
  <rect fill="#fff" stroke="#000000" stroke-width="1.5" stroke-opacity="null" fill-opacity="null" x="650.000741" y="1275" width="100.00074" height="125" id="svg_292"/>
  <rect id="svg_293" height="25" width="50" y="1275" x="749.995558" stroke-width="1.5" stroke="#000000" fill="#fff"/>
  <rect id="svg_294" height="25" width="50" y="1275" x="799.995558" stroke-width="1.5" stroke="#000000" fill="#fff"/>
  <rect id="svg_295" height="25" width="50" y="1275" x="850.000736" stroke-width="1.5" stroke="#000000" fill="#fff"/>
  <rect id="svg_296" height="25" width="50" y="1325" x="749.995558" stroke-width="1.5" stroke="#000000" fill="#fff"/>
  <rect id="svg_297" height="25" width="50" y="1325" x="799.995558" stroke-width="1.5" stroke="#000000" fill="#fff"/>
  <rect id="svg_298" height="25" width="50" y="1325" x="850.000736" stroke-width="1.5" stroke="#000000" fill="#fff"/>
  <rect id="svg_299" height="25" width="50" y="1375.00074" x="749.995558" stroke-width="1.5" stroke="#000000" fill="#fff"/>
  <rect id="svg_300" height="25" width="50" y="1375.00074" x="799.995558" stroke-width="1.5" stroke="#000000" fill="#fff"/>
  <rect id="svg_301" height="25" width="50" y="1375.00074" x="850.000736" stroke-width="1.5" stroke="#000000" fill="#fff"/>
  <rect id="svg_302" height="25" width="50" y="1325.002223" x="900" stroke-width="1.5" stroke="#000000" fill="#fff"/>
  <rect id="svg_303" height="25" width="50" y="1350.265568" x="900" stroke-width="1.5" stroke="#000000" fill="#fff"/>
  <rect id="svg_304" height="25" width="50" y="1349.947361" x="950" stroke-width="1.5" stroke="#000000" fill="#fff"/>
  <rect id="svg_305" height="25" width="50" y="1375" x="950" stroke-width="1.5" stroke="#000000" fill="#fff"/>
  <rect id="svg_306" height="25" width="50" y="1349.947361" x="1000" stroke-width="1.5" stroke="#000000" fill="#fff"/>
  <rect id="svg_307" height="25" width="50" y="1375" x="1000" stroke-width="1.5" stroke="#000000" fill="#fff"/>
  <rect fill="#fff" stroke="#000000" stroke-width="1.5" stroke-opacity="null" fill-opacity="null" x="1350" y="1024.999977" width="100" height="50" id="svg_308"/>
  <rect fill="#fff" stroke="#000000" stroke-width="1.5" stroke-opacity="null" fill-opacity="null" x="1350" y="1074.999976" width="100" height="50" id="svg_309"/>
  <rect fill="#fff" stroke="#000000" stroke-width="1.5" stroke-opacity="null" fill-opacity="null" x="1350" y="1124.999978" width="100" height="50" id="svg_310"/>
  <rect fill="#fff" stroke="#000000" stroke-width="1.5" stroke-opacity="null" fill-opacity="null" x="1350" y="1174.99998" width="100" height="50" id="svg_311"/>
  <rect id="svg_312" height="75" width="100" y="1225" x="1350" stroke-width="1.5" stroke="#000" fill="#fff"/>
  <rect id="svg_317" height="25" width="100" y="975" x="1050" fill-opacity="null" stroke-opacity="null" stroke-width="1.5" stroke="#000000" fill="#fff"/>
  <rect id="svg_318" height="25" width="100" y="1000" x="1050" fill-opacity="null" stroke-opacity="null" stroke-width="1.5" stroke="#000000" fill="#fff"/>
  <rect id="svg_319" height="25" width="100" y="975" x="1150" fill-opacity="null" stroke-opacity="null" stroke-width="1.5" stroke="#000000" fill="#fff"/>
  <rect id="svg_320" height="25" width="100" y="1000" x="1150" fill-opacity="null" stroke-opacity="null" stroke-width="1.5" stroke="#000000" fill="#fff"/>
  <rect id="svg_321" height="25" width="100" y="1025" x="1050" fill-opacity="null" stroke-opacity="null" stroke-width="1.5" stroke="#000000" fill="#fff"/>
  <rect id="svg_322" height="25" width="100" y="1050" x="1050" fill-opacity="null" stroke-opacity="null" stroke-width="1.5" stroke="#000000" fill="#fff"/>
  <rect id="svg_323" height="25" width="100" y="1125" x="1050" fill-opacity="null" stroke-opacity="null" stroke-width="1.5" stroke="#000000" fill="#fff"/>
  <rect id="svg_324" height="25" width="100" y="1150" x="1050" fill-opacity="null" stroke-opacity="null" stroke-width="1.5" stroke="#000000" fill="#fff"/>
  <rect id="svg_325" height="25" width="100" y="1175" x="1050" fill-opacity="null" stroke-opacity="null" stroke-width="1.5" stroke="#000000" fill="#fff"/>
  <rect id="svg_326" height="25" width="100" y="1100" x="1150" fill-opacity="null" stroke-opacity="null" stroke-width="1.5" stroke="#000000" fill="#fff"/>
  <rect id="svg_327" height="25" width="100" y="1125" x="1150" fill-opacity="null" stroke-opacity="null" stroke-width="1.5" stroke="#000000" fill="#fff"/>
  <rect id="svg_328" height="25" width="100" y="1250" x="1050" fill-opacity="null" stroke-opacity="null" stroke-width="1.5" stroke="#000000" fill="#fff"/>
  <rect id="svg_329" height="25" width="100" y="1275" x="1050" fill-opacity="null" stroke-opacity="null" stroke-width="1.5" stroke="#000000" fill="#fff"/>
  <rect id="svg_330" height="25" width="100" y="1225" x="1150" fill-opacity="null" stroke-opacity="null" stroke-width="1.5" stroke="#000000" fill="#fff"/>
  <rect id="svg_331" height="25" width="100" y="1250" x="1150" fill-opacity="null" stroke-opacity="null" stroke-width="1.5" stroke="#000000" fill="#fff"/>
  <rect id="svg_332" height="25" width="100" y="1275" x="1150" fill-opacity="null" stroke-opacity="null" stroke-width="1.5" stroke="#000000" fill="#fff"/>
  <rect id="svg_333" height="25" width="100" y="1375" x="1050" fill-opacity="null" stroke-opacity="null" stroke-width="1.5" stroke="#000000" fill="#fff"/>
  <rect id="svg_334" height="25" width="100" y="1350" x="1150" fill-opacity="null" stroke-opacity="null" stroke-width="1.5" stroke="#000000" fill="#fff"/>
  <rect id="svg_335" height="25" width="100" y="1375" x="1150" fill-opacity="null" stroke-opacity="null" stroke-width="1.5" stroke="#000000" fill="#fff"/>
  <rect id="svg_336" height="25" width="50" y="950" x="1250" stroke-width="1.5" stroke="#000000" fill="#fff"/>
  <rect id="svg_337" height="25" width="50" y="975" x="1250" stroke-width="1.5" stroke="#000000" fill="#fff"/>
  <rect id="svg_338" height="25" width="50" y="1050" x="1250" stroke-width="1.5" stroke="#000000" fill="#fff"/>
  <rect id="svg_339" height="25" width="50" y="1075" x="1250" stroke-width="1.5" stroke="#000000" fill="#fff"/>
  <rect id="svg_340" height="25" width="50" y="1100" x="1250" stroke-width="1.5" stroke="#000000" fill="#fff"/>
  <rect id="svg_341" height="25" width="50" y="1175" x="1250" stroke-width="1.5" stroke="#000000" fill="#fff"/>
  <rect id="svg_342" height="25" width="50" y="1200" x="1250" stroke-width="1.5" stroke="#000000" fill="#fff"/>
  <rect id="svg_343" height="25" width="50" y="1225" x="1250" stroke-width="1.5" stroke="#000000" fill="#fff"/>
  <rect id="svg_344" height="25" width="50" y="1275" x="1250" stroke-width="1.5" stroke="#000000" fill="#fff"/>
  <rect id="svg_345" height="25" width="50" y="1350" x="1250" stroke-width="1.5" stroke="#000000" fill="#fff"/>
  <rect id="svg_346" height="25" width="50" y="1375" x="1250" stroke-width="1.5" stroke="#000000" fill="#fff"/>
 </g>
</svg>