<svg width="1920" height="1080" xmlns="http://www.w3.org/2000/svg">
 <!-- Created with Method Draw - http://github.com/duopixel/Method-Draw/ -->

 <g>
  <title>background</title>
  <rect x="-1" y="-1" width="1922" height="1082" id="canvas_background" fill="#fff"/>
  <g id="canvasGrid" display="none">
   <rect id="svg_13" width="100%" height="100%" x="0" y="0" stroke-width="0" fill="url(#gridpattern)"/>
  </g>
 </g>
 <g>
  <title>Layer 1</title>
  <rect fill="#fff" stroke="#000" stroke-width="1.5" x="250" y="160" width="50" height="20" id="svg_1"/>
  <rect fill="#fff" stroke="#000" stroke-width="1.5" x="200" y="160" width="50" height="20" id="svg_2"/>
  <rect fill="#fff" stroke="#000" stroke-width="1.5" x="250" y="180" width="50" height="20" id="svg_3"/>
  <rect fill="#fff" stroke="#000" stroke-width="1.5" x="200" y="180" width="50" height="20" id="svg_4"/>
  <rect fill="#fff" stroke="#000" stroke-width="1.5" x="250" y="220" width="50" height="20" id="svg_5"/>
  <rect fill="#fff" stroke="#000" stroke-width="1.5" x="200" y="220" width="50" height="20" id="svg_6"/>
  <rect fill="#fff" stroke="#000" stroke-width="1.5" x="250" y="240" width="50" height="20" id="svg_7"/>
  <rect fill="#fff" stroke="#000" stroke-width="1.5" x="200" y="240" width="50" height="20" id="svg_8"/>
  <rect fill="#fff" stroke="#000" stroke-width="1.5" x="250" y="280" width="50" height="20" id="svg_9"/>
  <rect fill="#fff" stroke="#000" stroke-width="1.5" x="200" y="280" width="50" height="20" id="svg_10"/>
  <rect fill="#fff" stroke="#000" stroke-width="1.5" x="250" y="300" width="50" height="20" id="svg_11"/>
  <rect fill="#fff" stroke="#000" stroke-width="1.5" x="200" y="300" width="50" height="20" id="svg_12"/>
  <rect id="svg_14" height="20" width="100" y="340" x="200" fill-opacity="null" stroke-opacity="null" stroke-width="1.5" stroke="#000" fill="#fff"/>
  <rect fill="#fff" stroke="#000" stroke-width="1.5" x="400" y="260" width="50" height="20" id="svg_15"/>
  <rect fill="#fff" stroke="#000" stroke-width="1.5" x="350" y="260" width="50" height="20" id="svg_16"/>
  <rect fill="#fff" stroke="#000" stroke-width="1.5" x="400" y="280" width="50" height="20" id="svg_17"/>
  <rect fill="#fff" stroke="#000" stroke-width="1.5" x="350" y="280" width="50" height="20" id="svg_18"/>
  <rect fill="#fff" stroke="#000" stroke-width="1.5" x="400" y="300" width="50" height="20" id="svg_19"/>
  <rect fill="#fff" stroke="#000" stroke-width="1.5" x="350" y="300" width="50" height="20" id="svg_20"/>
  <rect fill="#fff" stroke="#000" stroke-width="1.5" x="400" y="340" width="50" height="20" id="svg_21"/>
  <rect fill="#fff" stroke="#000" stroke-width="1.5" x="350" y="340" width="50" height="20" id="svg_22"/>
  <rect stroke="#000" fill="#fff" stroke-width="1.5" x="400" y="140" width="50" height="20" id="svg_23"/>
  <rect fill="#fff" stroke="#000" stroke-width="1.5" x="350" y="140" width="50" height="20" id="svg_24"/>
  <rect fill="#fff" stroke="#000" stroke-width="1.5" x="400" y="160" width="50" height="20" id="svg_25"/>
  <rect fill="#fff" stroke="#000" stroke-width="1.5" x="350" y="160" width="50" height="20" id="svg_26"/>
  <rect id="svg_27" height="40" width="50" y="180" x="350" fill-opacity="null" stroke-opacity="null" stroke-width="1.5" stroke="#000" fill="#fff"/>
  <rect id="svg_28" height="40" width="50" y="180" x="400" fill-opacity="null" stroke-opacity="null" stroke-width="1.5" stroke="#000" fill="#fff"/>
  <rect fill="#fff" stroke="#000" stroke-width="1.5" x="400" y="220" width="50" height="20" id="svg_29"/>
  <rect fill="#fff" stroke="#000" stroke-width="1.5" x="350" y="220" width="50" height="20" id="svg_30"/>
  <rect stroke="#000" fill="#fff" stroke-width="1.5" x="550" y="140" width="50" height="20" id="svg_31"/>
  <rect fill="#fff" stroke="#000" stroke-width="1.5" x="500" y="140" width="50" height="20" id="svg_32"/>
  <rect fill="#fff" stroke="#000" stroke-width="1.5" x="550" y="160" width="50" height="20" id="svg_33"/>
  <rect fill="#fff" stroke="#000" stroke-width="1.5" x="500" y="160" width="50" height="20" id="svg_34"/>
  <rect id="svg_35" height="40" width="50" y="180" x="500" fill-opacity="null" stroke-opacity="null" stroke-width="1.5" stroke="#000" fill="#fff"/>
  <rect id="svg_36" height="40" width="50" y="180" x="550" fill-opacity="null" stroke-opacity="null" stroke-width="1.5" stroke="#000" fill="#fff"/>
  <rect fill="#fff" stroke="#000" stroke-width="1.5" x="550" y="220" width="50" height="20" id="svg_37"/>
  <rect fill="#fff" stroke="#000" stroke-width="1.5" x="500" y="220" width="50" height="20" id="svg_38"/>
  <rect fill="#fff" stroke="#000" stroke-width="1.5" x="550" y="260" width="50" height="20" id="svg_39"/>
  <rect fill="#fff" stroke="#000" stroke-width="1.5" x="500" y="260" width="50" height="20" id="svg_40"/>
  <rect fill="#fff" stroke="#000" stroke-width="1.5" x="550" y="280" width="50" height="20" id="svg_41"/>
  <rect fill="#fff" stroke="#000" stroke-width="1.5" x="500" y="280" width="50" height="20" id="svg_42"/>
  <rect fill="#fff" stroke="#000" stroke-width="1.5" x="550" y="300" width="50" height="20" id="svg_43"/>
  <rect fill="#fff" stroke="#000" stroke-width="1.5" x="500" y="300" width="50" height="20" id="svg_44"/>
  <rect fill="#fff" stroke="#000" stroke-width="1.5" x="550" y="340" width="50" height="20" id="svg_45"/>
  <rect fill="#fff" stroke="#000" stroke-width="1.5" x="500" y="340" width="50" height="20" id="svg_46"/>
  <rect fill="#fff" stroke="#000" stroke-width="1.5" x="650" y="340" width="50" height="20" id="svg_47"/>
  <rect fill="#fff" stroke="#000" stroke-width="1.5" x="600" y="340" width="50" height="20" id="svg_48"/>
  <rect fill="#fff" stroke="#000" stroke-width="1.5" x="650" y="260" width="50" height="20" id="svg_49"/>
  <rect fill="#fff" stroke="#000" stroke-width="1.5" x="650" y="280" width="50" height="20" id="svg_50"/>
  <rect fill="#fff" stroke="#000" stroke-width="1.5" x="800" y="140" width="50" height="20" id="svg_51"/>
  <rect fill="#fff" stroke="#000" stroke-width="1.5" x="800" y="160" width="50" height="20" id="svg_52"/>
  <rect fill="#fff" stroke="#000" stroke-width="1.5" x="800" y="180" width="50" height="20" id="svg_53"/>
  <rect fill="#fff" stroke="#000" stroke-width="1.5" x="800" y="200" width="50" height="20" id="svg_54"/>
  <rect fill="#fff" stroke="#000" stroke-width="1.5" x="800" y="220" width="50" height="20" id="svg_55"/>
  <rect fill="#fff" stroke="#000" stroke-width="1.5" x="900" y="160" width="50" height="20" id="svg_56"/>
  <rect fill="#fff" stroke="#000" stroke-width="1.5" x="900" y="180" width="50" height="20" id="svg_57"/>
  <rect fill="#fff" stroke="#000" stroke-width="1.5" x="900" y="200" width="50" height="20" id="svg_58"/>
  <rect fill="#fff" stroke="#000" stroke-width="1.5" x="900" y="220" width="50" height="20" id="svg_59"/>
  <rect fill="#fff" stroke="#000" stroke-width="1.5" x="950" y="160" width="50" height="20" id="svg_60"/>
  <rect fill="#fff" stroke="#000" stroke-width="1.5" x="950" y="180" width="50" height="20" id="svg_61"/>
  <rect fill="#fff" stroke="#000" stroke-width="1.5" x="950" y="200" width="50" height="20" id="svg_62"/>
  <rect fill="#fff" stroke="#000" stroke-width="1.5" x="950" y="220" width="50" height="20" id="svg_63"/>
  <rect fill="#fff" stroke="#000" stroke-width="1.5" x="1000" y="140" width="50" height="20" id="svg_64"/>
  <rect fill="#fff" stroke="#000" stroke-width="1.5" x="1050" y="140" width="50" height="20" id="svg_65"/>
  <rect fill="#fff" stroke="#000" stroke-width="1.5" x="1050" y="160" width="50" height="20" id="svg_66"/>
  <rect fill="#fff" stroke="#000" stroke-width="1.5" x="1050" y="180" width="50" height="20" id="svg_67"/>
  <rect fill="#fff" stroke="#000" stroke-width="1.5" x="1050" y="200" width="50" height="20" id="svg_68"/>
  <rect fill="#fff" stroke="#000" stroke-width="1.5" x="1050" y="220" width="50" height="20" id="svg_69"/>
  <rect fill="#fff" stroke="#000" stroke-width="1.5" x="1100" y="140" width="50" height="20" id="svg_70"/>
  <rect fill="#fff" stroke="#000" stroke-width="1.5" x="1150" y="140" width="50" height="20" id="svg_71"/>
  <rect fill="#fff" stroke="#000" stroke-width="1.5" x="1150" y="160" width="50" height="20" id="svg_72"/>
  <rect fill="#fff" stroke="#000" stroke-width="1.5" x="1150" y="180" width="50" height="20" id="svg_73"/>
  <rect fill="#fff" stroke="#000" stroke-width="1.5" x="1150" y="200" width="50" height="20" id="svg_74"/>
  <rect fill="#fff" stroke="#000" stroke-width="1.5" x="1200" y="140" width="50" height="20" id="svg_75"/>
  <rect fill="#fff" stroke="#000" stroke-width="1.5" x="1200" y="160" width="50" height="20" id="svg_76"/>
  <rect fill="#fff" stroke="#000" stroke-width="1.5" x="1200" y="180" width="50" height="20" id="svg_77"/>
  <rect fill="#fff" stroke="#000" stroke-width="1.5" x="1200" y="200" width="50" height="20" id="svg_78"/>
  <rect fill="#fff" stroke="#000" stroke-width="1.5" x="1300" y="140" width="50" height="20" id="svg_79"/>
  <rect fill="#fff" stroke="#000" stroke-width="1.5" x="1300" y="160" width="50" height="20" id="svg_80"/>
  <rect fill="#fff" stroke="#000" stroke-width="1.5" x="1300" y="180" width="50" height="20" id="svg_81"/>
  <rect fill="#fff" stroke="#000" stroke-width="1.5" x="1300" y="200" width="50" height="20" id="svg_82"/>
  <rect fill="#fff" stroke="#000" stroke-width="1.5" x="1350" y="140" width="50" height="20" id="svg_83"/>
  <rect fill="#fff" stroke="#000" stroke-width="1.5" x="1350" y="160" width="50" height="20" id="svg_84"/>
  <rect fill="#fff" stroke="#000" stroke-width="1.5" x="1350" y="180" width="50" height="20" id="svg_85"/>
  <rect fill="#fff" stroke="#000" stroke-width="1.5" x="1350" y="200" width="50" height="20" id="svg_86"/>
  <rect fill="#fff" stroke="#000" stroke-width="1.5" x="1400" y="140" width="50" height="20" id="svg_87"/>
  <rect fill="#fff" stroke="#000" stroke-width="1.5" x="1500" y="140" width="50" height="20" id="svg_88"/>
  <rect fill="#fff" stroke="#000" stroke-width="1.5" x="1500" y="180" width="50" height="20" id="svg_89"/>
  <rect fill="#fff" stroke="#000" stroke-width="1.5" x="1500" y="200" width="50" height="20" id="svg_90"/>
  <rect fill="#fff" stroke="#000" stroke-width="1.5" x="1500" y="240" width="50" height="20" id="svg_91"/>
  <rect fill="#fff" stroke="#000" stroke-width="1.5" x="1500" y="260" width="50" height="20" id="svg_92"/>
  <rect fill="#fff" stroke="#000" stroke-width="1.5" x="1550" y="140" width="50" height="20" id="svg_93"/>
  <rect fill="#fff" stroke="#000" stroke-width="1.5" x="1550" y="180" width="50" height="20" id="svg_94"/>
  <rect fill="#fff" stroke="#000" stroke-width="1.5" x="1550" y="200" width="50" height="20" id="svg_95"/>
  <rect fill="#fff" stroke="#000" stroke-width="1.5" x="1550" y="240" width="50" height="20" id="svg_96"/>
  <rect fill="#fff" stroke="#000" stroke-width="1.5" x="1550" y="260" width="50" height="20" id="svg_97"/>
  <rect fill="#fff" stroke="#000" stroke-width="1.5" x="1600" y="140" width="50" height="20" id="svg_98"/>
  <rect fill="#fff" stroke="#000" stroke-width="1.5" x="1600" y="180" width="50" height="20" id="svg_99"/>
  <rect fill="#fff" stroke="#000" stroke-width="1.5" x="1600" y="200" width="50" height="20" id="svg_100"/>
  <rect fill="#fff" stroke="#000" stroke-width="1.5" x="1600" y="240" width="50" height="20" id="svg_101"/>
  <rect fill="#fff" stroke="#000" stroke-width="1.5" x="1600" y="260" width="50" height="20" id="svg_102"/>
  <rect fill="#fff" stroke="#000" stroke-width="1.5" x="1650" y="140" width="50" height="20" id="svg_103"/>
  <rect fill="#fff" stroke="#000" stroke-width="1.5" x="1650" y="180" width="50" height="20" id="svg_104"/>
  <rect fill="#fff" stroke="#000" stroke-width="1.5" x="1650" y="200" width="50" height="20" id="svg_105"/>
  <rect fill="#fff" stroke="#000" stroke-width="1.5" x="1650" y="240" width="50" height="20" id="svg_106"/>
  <rect fill="#fff" stroke="#000" stroke-width="1.5" x="1650" y="260" width="50" height="20" id="svg_107"/>
  <rect fill="#fff" stroke="#000" stroke-width="1.5" x="1500" y="300" width="50" height="20" id="svg_108"/>
  <rect fill="#fff" stroke="#000" stroke-width="1.5" x="1550" y="300" width="50" height="20" id="svg_109"/>
  <rect fill="#fff" stroke="#000" stroke-width="1.5" x="1600" y="300" width="50" height="20" id="svg_110"/>
  <rect fill="#fff" stroke="#000" stroke-width="1.5" x="1650" y="300" width="50" height="20" id="svg_111"/>
  <rect fill="#fff" stroke="#000" stroke-width="1.5" x="1350" y="280" width="50" height="20" id="svg_112"/>
  <rect fill="#fff" stroke="#000" stroke-width="1.5" x="1350" y="300" width="50" height="20" id="svg_113"/>
  <rect fill="#fff" stroke="#000" stroke-width="1.5" x="1350" y="320" width="50" height="20" id="svg_114"/>
  <rect fill="#fff" stroke="#000" stroke-width="1.5" x="1350" y="340" width="50" height="20" id="svg_115"/>
  <rect fill="#fff" stroke="#000" stroke-width="1.5" x="1300" y="280" width="50" height="20" id="svg_116"/>
  <rect fill="#fff" stroke="#000" stroke-width="1.5" x="1300" y="300" width="50" height="20" id="svg_117"/>
  <rect fill="#fff" stroke="#000" stroke-width="1.5" x="1200" y="280" width="50" height="20" id="svg_118"/>
  <rect fill="#fff" stroke="#000" stroke-width="1.5" x="1200" y="300" width="50" height="20" id="svg_119"/>
  <rect fill="#fff" stroke="#000" stroke-width="1.5" x="1200" y="320" width="50" height="20" id="svg_120"/>
  <rect fill="#fff" stroke="#000" stroke-width="1.5" x="1200" y="340" width="50" height="20" id="svg_121"/>
  <rect fill="#fff" stroke="#000" stroke-width="1.5" x="1500" y="340" width="50" height="20" id="svg_122"/>
  <rect fill="#fff" stroke="#000" stroke-width="1.5" x="1500" y="360" width="50" height="20" id="svg_123"/>
  <rect fill="#fff" stroke="#000" stroke-width="1.5" x="1500" y="380" width="50" height="20" id="svg_124"/>
  <rect fill="#fff" stroke="#000" stroke-width="1.5" x="1500" y="400" width="50" height="20" id="svg_125"/>
  <rect fill="#fff" stroke="#000" stroke-width="1.5" x="1500" y="420" width="50" height="20" id="svg_126"/>
  <rect fill="#fff" stroke="#000" stroke-width="1.5" x="1500" y="440" width="50" height="20" id="svg_127"/>
  <rect stroke="#000" fill="#fff" stroke-width="1.5" x="1450" y="380" width="50" height="20" id="svg_128"/>
  <rect fill="#fff" stroke="#000" stroke-width="1.5" x="1450" y="400" width="50" height="20" id="svg_129"/>
  <rect fill="#fff" stroke="#000" stroke-width="1.5" x="1450" y="420" width="50" height="20" id="svg_130"/>
  <rect fill="#fff" stroke="#000" stroke-width="1.5" x="1450" y="440" width="50" height="20" id="svg_131"/>
  <rect rx="15" id="svg_132" height="60" width="200" y="360" x="200" fill-opacity="null" stroke-opacity="null" stroke-width="1.5" stroke="#000" fill="#fff"/>
  <rect rx="15" id="svg_133" height="160" width="300" y="540" x="200" fill-opacity="null" stroke-opacity="null" stroke-width="1.5" stroke="#000" fill="#fff"/>
  <rect rx="15" id="svg_134" height="40" width="100" y="340" x="1600" fill-opacity="null" stroke-opacity="null" stroke-width="1.5" stroke="#000" fill="#fff"/>
  <rect rx="15" id="svg_135" height="40" width="100" y="380" x="1600" fill-opacity="null" stroke-opacity="null" stroke-width="1.5" stroke="#000" fill="#fff"/>
  <rect rx="15" id="svg_136" height="40" width="100" y="420" x="1600" fill-opacity="null" stroke-opacity="null" stroke-width="1.5" stroke="#000" fill="#fff"/>
  <rect rx="15" id="svg_137" height="40" width="100" y="460" x="1600" fill-opacity="null" stroke-opacity="null" stroke-width="1.5" stroke="#000" fill="#fff"/>
  <rect rx="15" id="svg_138" height="40" width="100" y="500" x="1600" fill-opacity="null" stroke-opacity="null" stroke-width="1.5" stroke="#000" fill="#fff"/>
  <rect rx="15" id="svg_139" height="40" width="200" y="500" x="1350" fill-opacity="null" stroke-opacity="null" stroke-width="1.5" stroke="#000" fill="#fff"/>
  <rect rx="15" id="svg_140" height="40" width="100" y="620" x="1200" fill-opacity="null" stroke-opacity="null" stroke-width="1.5" stroke="#000" fill="#fff"/>
  <rect rx="15" id="svg_141" height="40" width="100" y="660" x="1200" fill-opacity="null" stroke-opacity="null" stroke-width="1.5" stroke="#000" fill="#fff"/>
  <rect rx="15" id="svg_142" height="40" width="100" y="700" x="1200" fill-opacity="null" stroke-opacity="null" stroke-width="1.5" stroke="#000" fill="#fff"/>
  <rect rx="15" id="svg_143" height="120" width="100" y="740" x="1200" fill-opacity="null" stroke-opacity="null" stroke-width="1.5" stroke="#000" fill="#fff"/>
  <rect fill="#fff" stroke="#000" stroke-width="1.5" x="1350" y="620" width="100" height="20" id="svg_144"/>
  <rect fill="#fff" stroke="#000" stroke-width="1.5" x="1450" y="620" width="100" height="20" id="svg_145"/>
  <rect fill="#fff" stroke="#000" stroke-width="1.5" x="1550" y="620" width="100" height="20" id="svg_146"/>
  <rect fill="#fff" stroke="#000" stroke-width="1.5" x="1350" y="660" width="100" height="20" id="svg_147"/>
  <rect fill="#fff" stroke="#000" stroke-width="1.5" x="1450" y="660" width="100" height="20" id="svg_148"/>
  <rect fill="#fff" stroke="#000" stroke-width="1.5" x="1550" y="660" width="100" height="20" id="svg_149"/>
  <rect fill="#fff" stroke="#000" stroke-width="1.5" x="1350" y="680" width="100" height="20" id="svg_150"/>
  <rect fill="#fff" stroke="#000" stroke-width="1.5" x="1450" y="680" width="100" height="20" id="svg_151"/>
  <rect fill="#fff" stroke="#000" stroke-width="1.5" x="1550" y="680" width="100" height="20" id="svg_152"/>
  <rect fill="#fff" stroke="#000" stroke-width="1.5" x="1350" y="720" width="100" height="20" id="svg_153"/>
  <rect fill="#fff" stroke="#000" stroke-width="1.5" x="1450" y="720" width="100" height="20" id="svg_154"/>
  <rect fill="#fff" stroke="#000" stroke-width="1.5" x="1550" y="720" width="100" height="20" id="svg_155"/>
  <rect fill="#fff" stroke="#000" stroke-width="1.5" x="1350" y="740" width="100" height="20" id="svg_156"/>
  <rect fill="#fff" stroke="#000" stroke-width="1.5" x="1450" y="740" width="100" height="20" id="svg_157"/>
  <rect fill="#fff" stroke="#000" stroke-width="1.5" x="1550" y="740" width="100" height="20" id="svg_158"/>
  <rect fill="#fff" stroke="#000" stroke-width="1.5" x="1350" y="780" width="100" height="20" id="svg_159"/>
  <rect fill="#fff" stroke="#000" stroke-width="1.5" x="1450" y="780" width="100" height="20" id="svg_160"/>
  <rect fill="#fff" stroke="#000" stroke-width="1.5" x="1550" y="780" width="100" height="20" id="svg_161"/>
  <rect fill="#fff" stroke="#000" stroke-width="1.5" x="1350" y="800" width="100" height="20" id="svg_162"/>
  <rect fill="#fff" stroke="#000" stroke-width="1.5" x="1450" y="800" width="100" height="20" id="svg_163"/>
  <rect fill="#fff" stroke="#000" stroke-width="1.5" x="1550" y="800" width="100" height="20" id="svg_164"/>
  <rect fill="#fff" stroke="#000" stroke-width="1.5" x="1350" y="840" width="100" height="20" id="svg_165"/>
  <rect fill="#fff" stroke="#000" stroke-width="1.5" x="1450" y="840" width="100" height="20" id="svg_166"/>
  <rect fill="#fff" stroke="#000" stroke-width="1.5" x="1550" y="840" width="100" height="20" id="svg_167"/>
  <rect fill="#fff" stroke="#000" stroke-width="1.5" x="1650" y="720" width="50" height="20" id="svg_168"/>
  <rect fill="#fff" stroke="#000" stroke-width="1.5" x="1650" y="640" width="50" height="20" id="svg_169"/>
  <rect fill="#fff" stroke="#000" stroke-width="1.5" x="1650" y="660" width="50" height="20" id="svg_170"/>
  <rect fill="#fff" stroke="#000" stroke-width="1.5" x="1650" y="680" width="50" height="20" id="svg_171"/>
  <rect fill="#fff" stroke="#000" stroke-width="1.5" x="1650" y="700" width="50" height="20" id="svg_172"/>
  <rect fill="#fff" stroke="#000" stroke-width="1.5" x="1650" y="740" width="50" height="20" id="svg_173"/>
  <rect fill="#fff" stroke="#000" stroke-width="1.5" x="1650" y="820" width="50" height="20" id="svg_174"/>
  <rect fill="#fff" stroke="#000" stroke-width="1.5" x="1650" y="780" width="50" height="20" id="svg_175"/>
  <rect fill="#fff" stroke="#000" stroke-width="1.5" x="1650" y="800" width="50" height="20" id="svg_176"/>
  <rect fill="#fff" stroke="#000" stroke-width="1.5" x="1650" y="840" width="50" height="20" id="svg_177"/>
 </g>
</svg>