<svg width="1680" height="1050" xmlns="http://www.w3.org/2000/svg">
 <!-- Created with Method Draw - http://github.com/duopixel/Method-Draw/ -->

 <g>
  <title>background</title>
  <rect fill="#fff" id="canvas_background" height="1050" width="1680" y="-1" x="-1"/>
  <g display="none" id="canvasGrid">
   <rect fill="url(#gridpattern)" stroke-width="0" y="0" x="0" height="100%" width="100%" id="svg_1"/>
  </g>
 </g>
 <g>
  <title>Layer 1</title>
  <rect id="svg_2" height="20" width="50" y="160" x="150" stroke-width="1.5" stroke="#000" fill="#fff"/>
  <rect id="svg_3" height="20" width="50" y="160" x="100" stroke-width="1.5" stroke="#000" fill="#fff"/>
  <rect id="svg_4" height="20" width="50" y="180" x="150" stroke-width="1.5" stroke="#000" fill="#fff"/>
  <rect id="svg_5" height="20" width="50" y="180" x="100" stroke-width="1.5" stroke="#000" fill="#fff"/>
  <rect id="svg_6" height="20" width="50" y="220" x="150" stroke-width="1.5" stroke="#000" fill="#fff"/>
  <rect id="svg_7" height="20" width="50" y="220" x="100" stroke-width="1.5" stroke="#000" fill="#fff"/>
  <rect id="svg_8" height="20" width="50" y="240" x="150" stroke-width="1.5" stroke="#000" fill="#fff"/>
  <rect id="svg_9" height="20" width="50" y="240" x="100" stroke-width="1.5" stroke="#000" fill="#fff"/>
  <rect id="svg_10" height="20" width="50" y="280" x="150" stroke-width="1.5" stroke="#000" fill="#fff"/>
  <rect id="svg_11" height="20" width="50" y="280" x="100" stroke-width="1.5" stroke="#000" fill="#fff"/>
  <rect id="svg_12" height="20" width="50" y="300" x="150" stroke-width="1.5" stroke="#000" fill="#fff"/>
  <rect id="svg_13" height="20" width="50" y="300" x="100" stroke-width="1.5" stroke="#000" fill="#fff"/>
  <rect id="svg_14" height="20" width="50" y="340" x="100" stroke-width="1.5" stroke="#000" fill="#fff"/>
  <rect id="svg_15" height="20" width="50" y="260" x="300" stroke-width="1.5" stroke="#000" fill="#fff"/>
  <rect id="svg_16" height="20" width="50" y="260" x="250" stroke-width="1.5" stroke="#000" fill="#fff"/>
  <rect id="svg_17" height="20" width="50" y="280" x="300" stroke-width="1.5" stroke="#000" fill="#fff"/>
  <rect id="svg_18" height="20" width="50" y="280" x="250" stroke-width="1.5" stroke="#000" fill="#fff"/>
  <rect id="svg_19" height="20" width="50" y="300" x="300" stroke-width="1.5" stroke="#000" fill="#fff"/>
  <rect id="svg_20" height="20" width="50" y="300" x="250" stroke-width="1.5" stroke="#000" fill="#fff"/>
  <rect id="svg_21" height="20" width="50" y="340" x="300" stroke-width="1.5" stroke="#000" fill="#fff"/>
  <rect id="svg_22" height="20" width="50" y="340" x="250" stroke-width="1.5" stroke="#000" fill="#fff"/>
  <rect id="svg_23" height="20" width="50" y="160" x="300" stroke-width="1.5" stroke="#000" fill="#fff"/>
  <rect id="svg_24" height="20" width="50" y="160" x="250" stroke-width="1.5" stroke="#000" fill="#fff"/>
  <rect id="svg_25" height="20" width="50" y="180" x="300" stroke-width="1.5" stroke="#000" fill="#fff"/>
  <rect id="svg_26" height="20" width="50" y="180" x="250" stroke-width="1.5" stroke="#000" fill="#fff"/>
  <rect id="svg_27" height="20" width="50" y="200" x="250" stroke-width="1.5" stroke="#000" fill="#fff"/>
  <rect id="svg_28" height="20" width="50" y="200" x="300" stroke-width="1.5" stroke="#000" fill="#fff"/>
  <rect id="svg_29" height="20" width="50" y="220" x="300" stroke-width="1.5" stroke="#000" fill="#fff"/>
  <rect id="svg_30" height="20" width="50" y="220" x="250" stroke-width="1.5" stroke="#000" fill="#fff"/>
  <rect id="svg_31" height="20" width="50" y="160" x="450" stroke-width="1.5" stroke="#000" fill="#fff"/>
  <rect id="svg_32" height="20" width="50" y="160" x="400" stroke-width="1.5" stroke="#000" fill="#fff"/>
  <rect id="svg_33" height="20" width="50" y="180" x="450" stroke-width="1.5" stroke="#000" fill="#fff"/>
  <rect id="svg_34" height="20" width="50" y="180" x="400" stroke-width="1.5" stroke="#000" fill="#fff"/>
  <rect id="svg_35" height="20" width="50" y="200" x="400" stroke-width="1.5" stroke="#000" fill="#fff"/>
  <rect id="svg_36" height="20" width="50" y="200" x="450" stroke-width="1.5" stroke="#000" fill="#fff"/>
  <rect id="svg_37" height="20" width="50" y="220" x="450" stroke-width="1.5" stroke="#000" fill="#fff"/>
  <rect id="svg_38" height="20" width="50" y="220" x="400" stroke-width="1.5" stroke="#000" fill="#fff"/>
  <rect id="svg_39" height="20" width="50" y="260" x="450" stroke-width="1.5" stroke="#000" fill="#fff"/>
  <rect id="svg_40" height="20" width="50" y="260" x="400" stroke-width="1.5" stroke="#000" fill="#fff"/>
  <rect id="svg_41" height="20" width="50" y="280" x="450" stroke-width="1.5" stroke="#000" fill="#fff"/>
  <rect id="svg_42" height="20" width="50" y="280" x="400" stroke-width="1.5" stroke="#000" fill="#fff"/>
  <rect id="svg_43" height="20" width="50" y="300" x="450" stroke-width="1.5" stroke="#000" fill="#fff"/>
  <rect id="svg_44" height="20" width="50" y="300" x="400" stroke-width="1.5" stroke="#000" fill="#fff"/>
  <rect id="svg_45" height="20" width="50" y="340" x="450" stroke-width="1.5" stroke="#000" fill="#fff"/>
  <rect id="svg_46" height="20" width="50" y="340" x="400" stroke-width="1.5" stroke="#000" fill="#fff"/>
  <rect id="svg_47" height="20" width="50" y="340" x="550" stroke-width="1.5" stroke="#000" fill="#fff"/>
  <rect id="svg_48" height="20" width="50" y="340" x="500" stroke-width="1.5" stroke="#000" fill="#fff"/>
  <rect id="svg_49" height="20" width="50" y="260" x="550" stroke-width="1.5" stroke="#000" fill="#fff"/>
  <rect id="svg_50" height="20" width="50" y="280" x="550" stroke-width="1.5" stroke="#000" fill="#fff"/>
  <rect id="svg_51" height="20" width="50" y="140" x="700" stroke-width="1.5" stroke="#000" fill="#fff"/>
  <rect id="svg_52" height="20" width="50" y="160" x="700" stroke-width="1.5" stroke="#000" fill="#fff"/>
  <rect id="svg_53" height="20" width="50" y="180" x="700" stroke-width="1.5" stroke="#000" fill="#fff"/>
  <rect id="svg_54" height="20" width="50" y="200" x="700" stroke-width="1.5" stroke="#000" fill="#fff"/>
  <rect id="svg_55" height="20" width="50" y="220" x="700" stroke-width="1.5" stroke="#000" fill="#fff"/>
  <rect id="svg_56" height="20" width="50" y="160" x="800" stroke-width="1.5" stroke="#000" fill="#fff"/>
  <rect id="svg_57" height="20" width="50" y="180" x="800" stroke-width="1.5" stroke="#000" fill="#fff"/>
  <rect id="svg_58" height="20" width="50" y="200" x="800" stroke-width="1.5" stroke="#000" fill="#fff"/>
  <rect id="svg_59" height="20" width="50" y="220" x="800" stroke-width="1.5" stroke="#000" fill="#fff"/>
  <rect id="svg_60" height="20" width="50" y="160" x="850" stroke-width="1.5" stroke="#000" fill="#fff"/>
  <rect id="svg_61" height="20" width="50" y="180" x="850" stroke-width="1.5" stroke="#000" fill="#fff"/>
  <rect id="svg_62" height="20" width="50" y="200" x="850" stroke-width="1.5" stroke="#000" fill="#fff"/>
  <rect id="svg_63" height="20" width="50" y="220" x="850" stroke-width="1.5" stroke="#000" fill="#fff"/>
  <rect id="svg_64" height="20" width="50" y="140" x="900" stroke-width="1.5" stroke="#000" fill="#fff"/>
  <rect id="svg_65" height="20" width="50" y="140" x="950" stroke-width="1.5" stroke="#000" fill="#fff"/>
  <rect id="svg_66" height="20" width="50" y="160" x="950" stroke-width="1.5" stroke="#000" fill="#fff"/>
  <rect id="svg_67" height="20" width="50" y="180" x="950" stroke-width="1.5" stroke="#000" fill="#fff"/>
  <rect id="svg_68" height="20" width="50" y="200" x="950" stroke-width="1.5" stroke="#000" fill="#fff"/>
  <rect id="svg_69" height="20" width="50" y="220" x="950" stroke-width="1.5" stroke="#000" fill="#fff"/>
  <rect id="svg_70" height="20" width="50" y="140" x="1000" stroke-width="1.5" stroke="#000" fill="#fff"/>
  <rect id="svg_71" height="20" width="50" y="140" x="1050" stroke-width="1.5" stroke="#000" fill="#fff"/>
  <rect id="svg_72" height="20" width="50" y="160" x="1050" stroke-width="1.5" stroke="#000" fill="#fff"/>
  <rect id="svg_73" height="20" width="50" y="180" x="1050" stroke-width="1.5" stroke="#000" fill="#fff"/>
  <rect id="svg_74" height="20" width="50" y="200" x="1050" stroke-width="1.5" stroke="#000" fill="#fff"/>
  <rect id="svg_75" height="20" width="50" y="140" x="1100" stroke-width="1.5" stroke="#000" fill="#fff"/>
  <rect id="svg_76" height="20" width="50" y="160" x="1100" stroke-width="1.5" stroke="#000" fill="#fff"/>
  <rect id="svg_77" height="20" width="50" y="180" x="1100" stroke-width="1.5" stroke="#000" fill="#fff"/>
  <rect id="svg_78" height="20" width="50" y="200" x="1100" stroke-width="1.5" stroke="#000" fill="#fff"/>
  <rect id="svg_79" height="20" width="50" y="140" x="1200" stroke-width="1.5" stroke="#000" fill="#fff"/>
  <rect id="svg_80" height="20" width="50" y="160" x="1200" stroke-width="1.5" stroke="#000" fill="#fff"/>
  <rect id="svg_81" height="20" width="50" y="180" x="1200" stroke-width="1.5" stroke="#000" fill="#fff"/>
  <rect id="svg_82" height="20" width="50" y="200" x="1200" stroke-width="1.5" stroke="#000" fill="#fff"/>
  <rect id="svg_83" height="20" width="50" y="140" x="1250" stroke-width="1.5" stroke="#000" fill="#fff"/>
  <rect id="svg_84" height="20" width="50" y="160" x="1250" stroke-width="1.5" stroke="#000" fill="#fff"/>
  <rect id="svg_85" height="20" width="50" y="180" x="1250" stroke-width="1.5" stroke="#000" fill="#fff"/>
  <rect id="svg_86" height="20" width="50" y="200" x="1250" stroke-width="1.5" stroke="#000" fill="#fff"/>
  <rect id="svg_87" height="20" width="50" y="140" x="1300" stroke-width="1.5" stroke="#000" fill="#fff"/>
  <rect id="svg_88" height="20" width="50" y="140" x="1400" stroke-width="1.5" stroke="#000" fill="#fff"/>
  <rect id="svg_89" height="20" width="50" y="180" x="1400" stroke-width="1.5" stroke="#000" fill="#fff"/>
  <rect id="svg_90" height="20" width="50" y="200" x="1400" stroke-width="1.5" stroke="#000" fill="#fff"/>
  <rect id="svg_91" height="20" width="50" y="240" x="1400" stroke-width="1.5" stroke="#000" fill="#fff"/>
  <rect id="svg_92" height="20" width="50" y="260" x="1400" stroke-width="1.5" stroke="#000" fill="#fff"/>
  <rect id="svg_93" height="20" width="50" y="140" x="1450" stroke-width="1.5" stroke="#000" fill="#fff"/>
  <rect id="svg_94" height="20" width="50" y="180" x="1450" stroke-width="1.5" stroke="#000" fill="#fff"/>
  <rect id="svg_95" height="20" width="50" y="200" x="1450" stroke-width="1.5" stroke="#000" fill="#fff"/>
  <rect id="svg_96" height="20" width="50" y="240" x="1450" stroke-width="1.5" stroke="#000" fill="#fff"/>
  <rect id="svg_97" height="20" width="50" y="260" x="1450" stroke-width="1.5" stroke="#000" fill="#fff"/>
  <rect id="svg_98" height="20" width="50" y="140" x="1500" stroke-width="1.5" stroke="#000" fill="#fff"/>
  <rect id="svg_99" height="20" width="50" y="180" x="1500" stroke-width="1.5" stroke="#000" fill="#fff"/>
  <rect id="svg_100" height="20" width="50" y="200" x="1500" stroke-width="1.5" stroke="#000" fill="#fff"/>
  <rect id="svg_101" height="20" width="50" y="240" x="1500" stroke-width="1.5" stroke="#000" fill="#fff"/>
  <rect id="svg_102" height="20" width="50" y="260" x="1500" stroke-width="1.5" stroke="#000" fill="#fff"/>
  <rect id="svg_103" height="20" width="50" y="140" x="1550" stroke-width="1.5" stroke="#000" fill="#fff"/>
  <rect id="svg_104" height="20" width="50" y="180" x="1550" stroke-width="1.5" stroke="#000" fill="#fff"/>
  <rect id="svg_105" height="20" width="50" y="200" x="1550" stroke-width="1.5" stroke="#000" fill="#fff"/>
  <rect id="svg_106" height="20" width="50" y="240" x="1550" stroke-width="1.5" stroke="#000" fill="#fff"/>
  <rect id="svg_107" height="20" width="50" y="260" x="1550" stroke-width="1.5" stroke="#000" fill="#fff"/>
  <rect id="svg_108" height="20" width="50" y="300" x="1400" stroke-width="1.5" stroke="#000" fill="#fff"/>
  <rect id="svg_109" height="20" width="50" y="300" x="1450" stroke-width="1.5" stroke="#000" fill="#fff"/>
  <rect id="svg_110" height="20" width="50" y="300" x="1500" stroke-width="1.5" stroke="#000" fill="#fff"/>
  <rect id="svg_111" height="20" width="50" y="300" x="1550" stroke-width="1.5" stroke="#000" fill="#fff"/>
  <rect id="svg_112" height="20" width="50" y="280" x="1250" stroke-width="1.5" stroke="#000" fill="#fff"/>
  <rect id="svg_113" height="20" width="50" y="300" x="1250" stroke-width="1.5" stroke="#000" fill="#fff"/>
  <rect id="svg_114" height="20" width="50" y="320" x="1250" stroke-width="1.5" stroke="#000" fill="#fff"/>
  <rect id="svg_115" height="20" width="50" y="340" x="1250" stroke-width="1.5" stroke="#000" fill="#fff"/>
  <rect id="svg_116" height="20" width="50" y="280" x="1200" stroke-width="1.5" stroke="#000" fill="#fff"/>
  <rect id="svg_117" height="20" width="50" y="300" x="1200" stroke-width="1.5" stroke="#000" fill="#fff"/>
  <rect id="svg_118" height="20" width="50" y="280" x="1100" stroke-width="1.5" stroke="#000" fill="#fff"/>
  <rect id="svg_119" height="20" width="50" y="300" x="1100" stroke-width="1.5" stroke="#000" fill="#fff"/>
  <rect id="svg_120" height="20" width="50" y="320" x="1100" stroke-width="1.5" stroke="#000" fill="#fff"/>
  <rect id="svg_121" height="20" width="50" y="340" x="1100" stroke-width="1.5" stroke="#000" fill="#fff"/>
  <rect id="svg_122" height="20" width="50" y="340" x="1400" stroke-width="1.5" stroke="#000" fill="#fff"/>
  <rect id="svg_123" height="20" width="50" y="360" x="1400" stroke-width="1.5" stroke="#000" fill="#fff"/>
  <rect id="svg_124" height="20" width="50" y="380" x="1400" stroke-width="1.5" stroke="#000" fill="#fff"/>
  <rect id="svg_125" height="20" width="50" y="400" x="1400" stroke-width="1.5" stroke="#000" fill="#fff"/>
  <rect id="svg_126" height="20" width="50" y="420" x="1400" stroke-width="1.5" stroke="#000" fill="#fff"/>
  <rect id="svg_127" height="20" width="50" y="440" x="1400" stroke-width="1.5" stroke="#000" fill="#fff"/>
  <rect id="svg_128" height="20" width="50" y="380" x="1350" stroke-width="1.5" stroke="#000" fill="#fff"/>
  <rect id="svg_129" height="20" width="50" y="400" x="1350" stroke-width="1.5" stroke="#000" fill="#fff"/>
  <rect id="svg_130" height="20" width="50" y="420" x="1350" stroke-width="1.5" stroke="#000" fill="#fff"/>
  <rect id="svg_131" height="20" width="50" y="440" x="1350" stroke-width="1.5" stroke="#000" fill="#fff"/>
  <rect fill="#fff" stroke="#000" stroke-width="1.5" stroke-opacity="null" fill-opacity="null" x="100" y="360" width="200" height="60" id="svg_132" rx="15"/>
  <rect fill="#fff" stroke="#000" stroke-width="1.5" stroke-opacity="null" fill-opacity="null" x="100" y="540" width="300" height="160" id="svg_133" rx="15"/>
  <rect fill="#fff" stroke="#000" stroke-width="1.5" stroke-opacity="null" fill-opacity="null" x="1500" y="340" width="100" height="40" id="svg_134" rx="15"/>
  <rect fill="#fff" stroke="#000" stroke-width="1.5" stroke-opacity="null" fill-opacity="null" x="1500" y="380" width="100" height="40" id="svg_135" rx="15"/>
  <rect fill="#fff" stroke="#000" stroke-width="1.5" stroke-opacity="null" fill-opacity="null" x="1500" y="420" width="100" height="40" id="svg_136" rx="15"/>
  <rect fill="#fff" stroke="#000" stroke-width="1.5" stroke-opacity="null" fill-opacity="null" x="1500" y="460" width="100" height="40" id="svg_137" rx="15"/>
  <rect fill="#fff" stroke="#000" stroke-width="1.5" stroke-opacity="null" fill-opacity="null" x="1500" y="500" width="100" height="40" id="svg_138" rx="15"/>
  <rect fill="#fff" stroke="#000" stroke-width="1.5" stroke-opacity="null" fill-opacity="null" x="1250" y="500" width="200" height="40" id="svg_139" rx="15"/>
  <rect fill="#fff" stroke="#000" stroke-width="1.5" stroke-opacity="null" fill-opacity="null" x="1100" y="620" width="150" height="40" id="svg_140" rx="15"/>
  <rect fill="#fff" stroke="#000" stroke-width="1.5" stroke-opacity="null" fill-opacity="null" x="1100" y="660" width="150" height="40" id="svg_141" rx="15"/>
  <rect fill="#fff" stroke="#000" stroke-width="1.5" stroke-opacity="null" fill-opacity="null" x="1100" y="700" width="150" height="40" id="svg_142" rx="15"/>
  <rect fill="#fff" stroke="#000" stroke-width="1.5" stroke-opacity="null" fill-opacity="null" x="1100" y="740" width="150" height="120" id="svg_143" rx="15"/>
  <rect id="svg_144" height="20" width="50" y="620" x="1400" stroke-width="1.5" stroke="#000" fill="#fff"/>
  <rect id="svg_145" height="20" width="50" y="620" x="1450" stroke-width="1.5" stroke="#000" fill="#fff"/>
  <rect id="svg_146" height="20" width="50" y="620" x="1500" stroke-width="1.5" stroke="#000" fill="#fff"/>
  <rect id="svg_147" height="20" width="50" y="660" x="1400" stroke-width="1.5" stroke="#000" fill="#fff"/>
  <rect id="svg_148" height="20" width="50" y="660" x="1450" stroke-width="1.5" stroke="#000" fill="#fff"/>
  <rect id="svg_149" height="20" width="50" y="660" x="1500" stroke-width="1.5" stroke="#000" fill="#fff"/>
  <rect id="svg_150" height="20" width="50" y="680" x="1400" stroke-width="1.5" stroke="#000" fill="#fff"/>
  <rect id="svg_151" height="20" width="50" y="680" x="1450" stroke-width="1.5" stroke="#000" fill="#fff"/>
  <rect id="svg_152" height="20" width="50" y="680" x="1500" stroke-width="1.5" stroke="#000" fill="#fff"/>
  <rect id="svg_153" height="20" width="50" y="720" x="1400" stroke-width="1.5" stroke="#000" fill="#fff"/>
  <rect id="svg_154" height="20" width="50" y="720" x="1450" stroke-width="1.5" stroke="#000" fill="#fff"/>
  <rect id="svg_155" height="20" width="50" y="720" x="1500" stroke-width="1.5" stroke="#000" fill="#fff"/>
  <rect id="svg_156" height="20" width="50" y="740" x="1400" stroke-width="1.5" stroke="#000" fill="#fff"/>
  <rect id="svg_157" height="20" width="50" y="740" x="1450" stroke-width="1.5" stroke="#000" fill="#fff"/>
  <rect id="svg_158" height="20" width="50" y="740" x="1500" stroke-width="1.5" stroke="#000" fill="#fff"/>
  <rect id="svg_159" height="20" width="50" y="780" x="1400" stroke-width="1.5" stroke="#000" fill="#fff"/>
  <rect id="svg_160" height="20" width="50" y="780" x="1450" stroke-width="1.5" stroke="#000" fill="#fff"/>
  <rect id="svg_161" height="20" width="50" y="780" x="1500" stroke-width="1.5" stroke="#000" fill="#fff"/>
  <rect id="svg_162" height="20" width="50" y="800" x="1400" stroke-width="1.5" stroke="#000" fill="#fff"/>
  <rect id="svg_163" height="20" width="50" y="800" x="1450" stroke-width="1.5" stroke="#000" fill="#fff"/>
  <rect id="svg_164" height="20" width="50" y="800" x="1500" stroke-width="1.5" stroke="#000" fill="#fff"/>
  <rect id="svg_165" height="20" width="50" y="840" x="1400" stroke-width="1.5" stroke="#000" fill="#fff"/>
  <rect id="svg_166" height="20" width="50" y="840" x="1450" stroke-width="1.5" stroke="#000" fill="#fff"/>
  <rect id="svg_167" height="20" width="50" y="840" x="1500" stroke-width="1.5" stroke="#000" fill="#fff"/>
  <rect id="svg_168" height="20" width="50" y="720" x="1550" stroke-width="1.5" stroke="#000" fill="#fff"/>
  <rect id="svg_169" height="20" width="50" y="620" x="1550" stroke-width="1.5" stroke="#000" fill="#fff"/>
  <rect id="svg_170" height="20" width="50" y="660" x="1550" stroke-width="1.5" stroke="#000" fill="#fff"/>
  <rect id="svg_171" height="20" width="50" y="680" x="1550" stroke-width="1.5" stroke="#000" fill="#fff"/>
  <rect id="svg_173" height="20" width="50" y="740" x="1550" stroke-width="1.5" stroke="#000" fill="#fff"/>
  <rect id="svg_175" height="20" width="50" y="780" x="1550" stroke-width="1.5" stroke="#000" fill="#fff"/>
  <rect id="svg_176" height="20" width="50" y="800" x="1550" stroke-width="1.5" stroke="#000" fill="#fff"/>
  <rect id="svg_177" height="20" width="50" y="840" x="1550" stroke-width="1.5" stroke="#000" fill="#fff"/>
  <rect stroke="#000" fill="#fff" stroke-width="1.5" stroke-opacity="null" fill-opacity="null" x="550" y="140" width="150" height="100" id="svg_178" rx="15"/>
 </g>
</svg>